<?xml version="1.0" encoding="UTF-8"?>
<svg id="Layer_2" data-name="Layer 2" xmlns="http://www.w3.org/2000/svg" viewBox="0 0 949.74 1030.18">
  <g id="Layer_2-2" data-name="Layer 2">
    <path d="M480.32,659.05l-11.5-4.69-199.99-83.62s-3.96-1.58-4.2-6.21v178.57c0,2.31,1.4,4.38,3.53,5.3l681.58,281.78v-179.48l-469.42-191.65h0Z"/>
    <path d="M264.62,564.39v.12c.06,2.49,1.46,4.99,4.2,6.21l199.99,83.62,216.36-88.61v-179.72l-416.35,172.11c-.06,0-.12.06-.18.06-.12.06-.18.12-.24.12-.24.12-.79.43-1.4.91l-.73.73c-.24.24-.49.61-.73.97-.12.18-.24.43-.3.67-.18.36-.37.79-.42,1.22-.12.49-.18.97-.18,1.58h-.02Z"/>
    <path d="M0,464.7v179.48l681.58-281.78c2.13-.91,3.53-2.98,3.53-5.3v-178.57c-.24,4.63-4.2,6.21-4.2,6.21l-199.99,83.62-11.5,4.69L0,464.7Z"/>
    <path d="M685.12,178.38v.12c-.06,2.49-1.46,4.99-4.2,6.21l-199.99,83.62-216.36-88.61V0l416.35,172.11c.06,0,.12.06.18.06.12.06.18.12.24.12.24.12.79.43,1.4.91l.73.73c.24.24.49.61.73.97.12.18.24.43.3.67.18.36.37.79.42,1.22.12.49.18.97.18,1.58h.02Z"/>
  </g>
</svg>