<?xml version="1.0" encoding="UTF-8"?>
<svg id="Layer_2" data-name="Layer 2" xmlns="http://www.w3.org/2000/svg" xmlns:xlink="http://www.w3.org/1999/xlink" viewBox="0 0 2861.28 1193.5">
  <defs>
    <style>
      .cls-1 {
        fill: url(#linear-gradient-2);
      }

      .cls-2 {
        fill: #fff;
      }

      .cls-3 {
        fill: url(#linear-gradient-4);
      }

      .cls-4 {
        fill: url(#linear-gradient-3);
      }

      .cls-5 {
        fill: url(#linear-gradient);
      }
    </style>
    <linearGradient id="linear-gradient" x1="-14335.66" y1="923.76" x2="-13395.83" y2="923.76" gradientTransform="translate(-13235.36) rotate(-180) scale(1 -1)" gradientUnits="userSpaceOnUse">
      <stop offset="0" stop-color="#bfbfbf"/>
      <stop offset=".81" stop-color="#fff"/>
      <stop offset=".97" stop-color="#eaeaea"/>
    </linearGradient>
    <linearGradient id="linear-gradient-2" x1="-12684.91" y1="797.69" x2="-13038.25" y2="239.27" gradientTransform="translate(-12225.99) rotate(-180) scale(1 -1)" gradientUnits="userSpaceOnUse">
      <stop offset="0" stop-color="#bfbfbf"/>
      <stop offset=".16" stop-color="#cfcfcf"/>
      <stop offset=".47" stop-color="#e9e9e9"/>
      <stop offset=".75" stop-color="#f9f9f9"/>
      <stop offset=".97" stop-color="#fff"/>
    </linearGradient>
    <linearGradient id="linear-gradient-3" x1="-778.53" y1="476.56" x2="161.3" y2="476.56" gradientTransform="translate(778.53)" xlink:href="#linear-gradient"/>
    <linearGradient id="linear-gradient-4" x1="872.22" y1="350.49" x2="518.88" y2="-207.93" gradientTransform="translate(-230.84)" xlink:href="#linear-gradient-2"/>
  </defs>
  <g id="Layer_1-2" data-name="Layer 1">
    <g>
      <path class="cls-5" d="M556.47,763.53l-13.32-5.43-231.7-96.88s-4.58-1.83-4.86-7.19v206.87c0,2.68,1.62,5.08,4.09,6.14l789.63,326.46v-207.93l-543.84-222.03Z"/>
      <path class="cls-1" d="M306.57,653.86v.14c.07,2.89,1.69,5.78,4.86,7.19l231.7,96.88,250.66-102.66v-208.21s-482.35,199.4-482.35,199.4c-.07,0-.14.07-.21.07-.14.07-.21.14-.28.14-.28.14-.92.49-1.62,1.06l-.85.85c-.28.28-.56.7-.85,1.13-.14.21-.28.49-.35.78-.21.42-.42.92-.49,1.41-.14.56-.21,1.13-.21,1.83Z"/>
      <path class="cls-4" d="M0,538.36v207.93s789.63-326.46,789.63-326.46c2.47-1.06,4.09-3.45,4.09-6.14v-206.87c-.28,5.36-4.86,7.19-4.86,7.19l-231.7,96.88-13.32,5.43L0,538.36Z"/>
      <path class="cls-3" d="M793.73,206.66v.14c-.07,2.89-1.69,5.78-4.86,7.19l-231.7,96.88-250.66-102.66V0l482.35,199.4c.07,0,.14.07.21.07.14.07.21.14.28.14.28.14.92.49,1.62,1.06l.85.85c.28.28.56.7.85,1.13.14.21.28.49.35.78.21.42.42.92.49,1.41.14.56.21,1.13.21,1.83Z"/>
    </g>
    <g>
      <path class="cls-2" d="M1392.73,353.44h-84.2l-144.27,350.76h75.66l35.55-91.72h145.3l35.6,91.72h78.66l-142.3-350.76ZM1298.01,553.87l51.14-129.29,49.59,129.29h-100.73Z"/>
      <path class="cls-2" d="M1758.99,573.41c-13.71-13.01-33.58-21.37-59.64-25.03l-50.11-7.04c-12.68-1.97-21.7-4.98-27.05-9.02-5.35-3.99-8.03-9.49-8.03-16.53,0-7.65,3.76-13.85,11.27-18.55,7.56-4.65,17.47-7,29.82-7,13.06,0,26.16,2.02,39.35,6.01,13.2,3.99,26.96,10.52,41.33,19.54l33.06-44.57c-16.01-11.04-33.16-19.21-51.33-24.56-18.22-5.35-37.01-8.03-56.4-8.03-21.7,0-40.76,3.33-57.11,10.05-16.39,6.67-28.98,16.2-37.8,28.55-8.88,12.35-13.29,27.05-13.29,44.1,0,21.04,6.76,37.99,20.29,50.81,13.53,12.87,33.16,21.32,58.89,25.31l50.06,7.51c11.36,1.69,19.63,4.51,24.84,8.55,5.17,3.99,7.75,9.35,7.75,16.01,0,8.36-4.6,15.12-13.76,20.29-9.2,5.21-21.51,7.8-36.87,7.8-13.67,0-27.47-2.54-41.33-7.51-13.85-5.02-28.32-12.54-43.35-22.59l-34.05,46.12c15.03,11.37,32.83,20.15,53.35,26.3,20.52,6.2,42.5,9.3,65.89,9.3,22.03,0,41.66-3.8,58.89-11.32,17.19-7.51,30.81-17.66,40.81-30.53,10.05-12.87,15.03-27.66,15.03-44.38,0-20.01-6.86-36.54-20.52-49.59Z"/>
      <path class="cls-2" d="M2004.97,573.41c-13.67-13.01-33.58-21.37-59.59-25.03l-50.11-7.04c-12.73-1.97-21.74-4.98-27.05-9.02-5.35-3.99-8.03-9.49-8.03-16.53,0-7.65,3.76-13.85,11.27-18.55,7.51-4.65,17.47-7,29.82-7,13.01,0,26.11,2.02,39.31,6.01,13.2,3.99,27,10.52,41.37,19.54l33.06-44.57c-16.06-11.04-33.16-19.21-51.38-24.56-18.22-5.35-37.01-8.03-56.35-8.03-21.74,0-40.76,3.33-57.11,10.05-16.39,6.67-29.02,16.2-37.85,28.55-8.83,12.35-13.29,27.05-13.29,44.1,0,21.04,6.76,37.99,20.29,50.81,13.53,12.87,33.16,21.32,58.89,25.31l50.11,7.51c11.37,1.69,19.63,4.51,24.8,8.55,5.17,3.99,7.75,9.35,7.75,16.01,0,8.36-4.56,15.12-13.76,20.29-9.2,5.21-21.46,7.8-36.82,7.8-13.71,0-27.47-2.54-41.33-7.51-13.9-5.02-28.32-12.54-43.35-22.59l-34.09,46.12c15.03,11.37,32.83,20.15,53.4,26.3,20.52,6.2,42.5,9.3,65.89,9.3,22.03,0,41.66-3.8,58.84-11.32,17.19-7.51,30.81-17.66,40.86-30.53,10-12.87,15.03-27.66,15.03-44.38,0-20.01-6.86-36.54-20.57-49.59Z"/>
      <path class="cls-2" d="M2121.49,345.17c-7.51-7.51-16.81-11.27-27.8-11.27s-19.91,3.76-27.57,11.27c-7.7,7.51-11.51,16.62-11.51,27.33s3.8,20.38,11.51,28.04c7.65,7.7,16.86,11.55,27.57,11.55s20.29-3.85,27.8-11.55c7.51-7.65,11.27-17,11.27-28.04s-3.76-19.82-11.27-27.33ZM2059.59,443.13v261.06h68.66v-261.06h-68.66Z"/>
      <path class="cls-2" d="M2373.25,573.41c-13.71-13.01-33.58-21.37-59.64-25.03l-50.11-7.04c-12.68-1.97-21.7-4.98-27.05-9.02-5.35-3.99-7.98-9.49-7.98-16.53,0-7.65,3.76-13.85,11.27-18.55,7.51-4.65,17.42-7,29.77-7,13.06,0,26.16,2.02,39.35,6.01,13.2,3.99,26.96,10.52,41.33,19.54l33.06-44.57c-16.01-11.04-33.16-19.21-51.33-24.56-18.22-5.35-37.01-8.03-56.4-8.03-21.7,0-40.72,3.33-57.11,10.05-16.34,6.67-28.98,16.2-37.8,28.55-8.88,12.35-13.29,27.05-13.29,44.1,0,21.04,6.76,37.99,20.29,50.81,13.53,12.87,33.16,21.32,58.89,25.31l50.11,7.51c11.32,1.69,19.58,4.51,24.8,8.55,5.17,3.99,7.75,9.35,7.75,16.01,0,8.36-4.6,15.12-13.76,20.29-9.2,5.21-21.46,7.8-36.87,7.8-13.67,0-27.47-2.54-41.33-7.51-13.85-5.02-28.32-12.54-43.35-22.59l-34.05,46.12c15.03,11.37,32.83,20.15,53.35,26.3,20.57,6.2,42.5,9.3,65.89,9.3,22.07,0,41.66-3.8,58.89-11.32,17.19-7.51,30.81-17.66,40.81-30.53,10.05-12.87,15.03-27.66,15.03-44.38,0-20.01-6.86-36.54-20.52-49.59Z"/>
      <path class="cls-2" d="M2832.21,463.42c-19.4-16.86-46.96-25.27-82.7-25.27-18.69,0-37.38,2.3-56.12,7-11.13,2.82-22.68,6.34-34.56,10.71v60.96c16.39-7.37,31.09-12.82,44.1-16.3,13.06-3.52,24.89-5.26,35.6-5.26,18.03,0,31.7,3.85,41.09,11.51,9.35,7.7,13.99,19.07,13.99,34.09v19.02c-20.05-7-41.42-10.52-64.1-10.52-33.44,0-59.45,6.95-78.19,20.8-18.69,13.85-28.04,33.3-28.04,58.37,0,15.69,3.99,29.54,12.02,41.56,8.03,12.02,19.21,21.46,33.58,28.32,14.32,6.86,30.71,10.28,49.08,10.28,15.03,0,28.74-1.83,41.09-5.54,12.35-3.66,23.9-9.49,34.56-17.52v18.55h67.67v-169.35c0-30.76-9.72-54.57-29.07-71.43ZM2793.61,642.53c-7.98,6.01-16.77,10.38-26.3,13.06-9.53,2.68-19.96,3.99-31.32,3.99-14.37,0-25.88-2.91-34.56-8.73-8.69-5.87-13.01-13.81-13.01-23.81s4.41-18.36,13.24-24.04c8.88-5.68,21.13-8.55,36.87-8.55,10.33,0,20.01.75,29.02,2.25,9.06,1.5,17.7,4.09,26.06,7.8v38.04Z"/>
    </g>
    <path class="cls-2" d="M2526.58,500.24v116.28c0,12.02,2.72,20.62,8.27,25.78,5.49,5.21,14.75,7.8,27.8,7.8,7,0,13.29-.42,18.78-1.27,5.49-.85,11.6-2.25,18.27-4.27v56.12c-7,2.35-15.69,4.18-26.02,5.49-10.38,1.36-19.58,2.02-27.57,2.02-28.74,0-50.53-6.57-65.42-19.77-14.84-13.2-22.26-32.31-22.26-57.39v-130.79h-53.63v-57.11h53.63v-82.18l68.14,32.36v49.83h75.14v57.11h-75.14Z"/>
  </g>
</svg>